# xmcd CD database file
#
# Track frame offsets:
#	150
#	12333
#	23805
#	35596
#	47815
#	59514
#	71475
#	84584
#	95855
#	108147
#	119600
#	133754
#	144783
#	156912
#	170013
#	180877
#	192668
#	203534
#
# Disc length: 2888 seconds
#
# Revision: 0
# Processed by: cddbd v1.5.2PL0 Copyright (c) Steve Scherf et al.
# Submitted via: CDex 1.51
#
DISCID=fc0b4612
DTITLE=Hank Williams - Your Cheatin' Heart, CD 2
DYEAR=1900
DGENRE=Country
TTITLE0=01 Your Cheatin' Heart
TTITLE1=02 My Bucket's Got A Hole In It
TTITLE2=03 Take These Chains From My Heart
TTITLE3=04 Half As Much
TTITLE4=05 A Mansion On A Hill
TTITLE5=06 Long Gone Someone Blues
TTITLE6=07 Jambalaya (On The Bayou)
TTITLE7=08 Nobody's Lonesome For Me
TTITLE8=09 Howlin' At The Moon
TTITLE9=10 Window Shopin'
TTITLE10=11 The Funeral
TTITLE11=12 Crazy Heart
TTITLE12=13 Lost Highway
TTITLE13=14 Wedding Bells
TTITLE14=15 Why Don't You Love Me
TTITLE15=16 Why Shouldn't We Try Anymore
TTITLE16=17 (I Heard That) Lonesome Whistle
TTITLE17=18 Mind Your Own Business
EXTD=
EXTT0=
EXTT1=
EXTT2=
EXTT3=
EXTT4=
EXTT5=
EXTT6=
EXTT7=
EXTT8=
EXTT9=
EXTT10=
EXTT11=
EXTT12=
EXTT13=
EXTT14=
EXTT15=
EXTT16=
EXTT17=
PLAYORDER=
